<svg width="44" height="46" viewBox="0 0 44 46" fill="none" xmlns="http://www.w3.org/2000/svg">
<path d="M21.9325 0.921886C21.827 0.922366 21.7207 0.939826 21.6194 0.974386L1.525 7.96814C1.09876 8.11598 0.831824 8.54169 0.887504 8.99001L4.06375 35.0281C4.10119 35.3363 4.28328 35.6078 4.55688 35.7556L21.4994 44.9638C21.6415 45.0415 21.7994 45.08 21.9569 45.08C22.1153 45.08 22.2751 45.0406 22.4181 44.9619L39.4469 35.6281C39.7176 35.4793 39.9016 35.2088 39.9381 34.9025L43.1125 8.86626C43.1682 8.41602 42.8985 7.98656 42.4675 7.84064L22.2438 0.970636C22.143 0.937036 22.038 0.921406 21.9325 0.921886ZM22 5.72001L34.48 32.6H30.22L27.55 26.8475H16.45L13.78 32.6H9.52L22 5.72001ZM22 14.84L18.2369 23H25.7631L22 14.84Z" fill="#404040"/>
</svg>
