<svg width="24" height="32" viewBox="0 0 24 32" fill="none" xmlns="http://www.w3.org/2000/svg">
<path d="M14.586 0H4C2.93913 0 1.92172 0.421427 1.17157 1.17157C0.421427 1.92172 0 2.93913 0 4V28C0 29.0609 0.421427 30.0783 1.17157 30.8284C1.92172 31.5786 2.93913 32 4 32H20C21.0609 32 22.0783 31.5786 22.8284 30.8284C23.5786 30.0783 24 29.0609 24 28V9.414C23.9999 8.88361 23.7891 8.37499 23.414 8L16 0.586C15.625 0.210901 15.1164 0.000113275 14.586 0ZM15 7V3L21 9H17C16.4696 9 15.9609 8.78929 15.5858 8.41421C15.2107 8.03914 15 7.53043 15 7ZM13 15V22.586L15.292 20.292C15.4798 20.1042 15.7344 19.9987 16 19.9987C16.2656 19.9987 16.5202 20.1042 16.708 20.292C16.8958 20.4798 17.0013 20.7344 17.0013 21C17.0013 21.2656 16.8958 21.5202 16.708 21.708L12.708 25.708C12.6151 25.8011 12.5048 25.875 12.3833 25.9254C12.2618 25.9758 12.1315 26.0018 12 26.0018C11.8685 26.0018 11.7382 25.9758 11.6167 25.9254C11.4952 25.875 11.3849 25.8011 11.292 25.708L7.292 21.708C7.10423 21.5202 6.99874 21.2656 6.99874 21C6.99874 20.7344 7.10423 20.4798 7.292 20.292C7.47977 20.1042 7.73445 19.9987 8 19.9987C8.26555 19.9987 8.52023 20.1042 8.708 20.292L11 22.586V15C11 14.7348 11.1054 14.4804 11.2929 14.2929C11.4804 14.1054 11.7348 14 12 14C12.2652 14 12.5196 14.1054 12.7071 14.2929C12.8946 14.4804 13 14.7348 13 15Z" fill="#7678ED"/>
</svg>
