<svg width="49" height="48" viewBox="0 0 49 48" fill="none" xmlns="http://www.w3.org/2000/svg">
<path d="M47.094 21.8609L26.136 0.905946C25.849 0.618851 25.5083 0.391107 25.1333 0.235725C24.7583 0.0803421 24.3564 0.000366211 23.9505 0.000366211C23.5446 0.000366211 23.1426 0.0803421 22.7677 0.235725C22.3927 0.391107 22.0519 0.618851 21.765 0.905946L17.415 5.25595L22.935 10.7759C23.586 10.5537 24.2864 10.5189 24.9562 10.6756C25.6261 10.8323 26.2383 11.1741 26.7232 11.6621C27.2081 12.1501 27.546 12.7646 27.6983 13.4354C27.8507 14.1062 27.8115 14.8064 27.585 15.4559L32.904 20.7779C33.6909 20.5009 34.5488 20.5 35.3362 20.7756C36.1237 21.0511 36.7939 21.5866 37.2364 22.2938C37.6789 23.0011 37.8674 23.838 37.7708 24.6667C37.6742 25.4953 37.2983 26.2664 36.705 26.8529C36.1044 27.4573 35.3125 27.8343 34.4648 27.9197C33.617 28.005 32.7659 27.7934 32.0568 27.3209C31.3478 26.8485 30.8247 26.1445 30.5771 25.3292C30.3294 24.5139 30.3725 23.638 30.699 22.8509L25.74 17.8889V30.9479C26.4938 31.3211 27.0969 31.9412 27.4488 32.7051C27.8008 33.469 27.8803 34.3305 27.6741 35.1459C27.4679 35.9613 26.9885 36.6814 26.3158 37.1861C25.643 37.6909 24.8176 37.9499 23.9771 37.9199C23.1365 37.8899 22.3317 37.5727 21.6967 37.0212C21.0617 36.4697 20.6348 35.7172 20.4873 34.8892C20.3398 34.0612 20.4806 33.2076 20.8862 32.4708C21.2917 31.7339 21.9375 31.1583 22.716 30.8399V17.6609C22.2669 17.4769 21.8586 17.2058 21.5147 16.8632C21.1709 16.5207 20.8982 16.1134 20.7125 15.665C20.5268 15.2166 20.4316 14.7358 20.4326 14.2504C20.4335 13.765 20.5305 13.2847 20.718 12.8369L15.279 7.39495L0.908998 21.7649C0.621903 22.0519 0.394159 22.3926 0.238776 22.7676C0.0833938 23.1426 0.00341797 23.5445 0.00341797 23.9504C0.00341797 24.3564 0.0833938 24.7583 0.238776 25.1333C0.394159 25.5083 0.621903 25.849 0.908998 26.1359L21.867 47.0939C22.1539 47.381 22.4947 47.6088 22.8697 47.7642C23.2446 47.9195 23.6466 47.9995 24.0525 47.9995C24.4584 47.9995 24.8603 47.9195 25.2353 47.7642C25.6103 47.6088 25.951 47.381 26.238 47.0939L47.097 26.2349C47.6761 25.655 48.0013 24.869 48.0013 24.0494C48.0013 23.2299 47.6761 22.4439 47.097 21.8639" fill="#2E2E2E"/>
</svg>
