<svg width="48" height="54" viewBox="0 0 48 54" fill="none" xmlns="http://www.w3.org/2000/svg">
<path d="M47.6938 0.379821C47.4718 0.137904 47.1598 0 46.8314 0H1.16868C0.840279 0 0.528241 0.137904 0.306192 0.379821C0.0841423 0.621738 -0.0245449 0.946631 0.00467213 1.27269L4.11843 47.3503C4.16167 47.8317 4.49708 48.2373 4.96221 48.3705L23.6728 53.7149C23.7768 53.7441 23.8855 53.7593 23.993 53.7593C24.1005 53.7593 24.2092 53.7441 24.3132 53.7149L43.0402 48.3705C43.5053 48.2373 43.8407 47.8317 43.8839 47.3503L47.9954 1.27269C48.0246 0.946631 47.9147 0.621738 47.6938 0.379821ZM8.80717 31.559L16.9879 33.8286V10.5181H21.6627V40.9038L8.80717 37.3382V31.559ZM39.256 23.3736L38.0242 37.6899L26.3374 40.9038V35.5267L34.226 33.3588L34.5181 28.9763L26.3374 30.3857V10.5181H40.3615L39.9583 15.1928H31.0121V24.5423L39.256 23.3736Z" fill="#404040"/>
</svg>
