<svg width="43" height="28" viewBox="0 0 43 28" fill="none" xmlns="http://www.w3.org/2000/svg">
<path d="M12.6179 0.818181H18.8565V18.9205C18.848 20.6165 18.4432 22.0994 17.642 23.3693C16.8409 24.6307 15.733 25.6108 14.3182 26.3097C12.9119 27.0085 11.2841 27.358 9.43466 27.358C7.7983 27.358 6.31108 27.0724 4.97301 26.5014C3.64347 25.9304 2.58239 25.044 1.78977 23.8423C1.00568 22.6406 0.617898 21.1023 0.62642 19.2273H6.92898C6.95455 19.9006 7.08239 20.4759 7.3125 20.9531C7.55114 21.4219 7.87926 21.7756 8.29688 22.0142C8.71449 22.2528 9.21307 22.3722 9.79261 22.3722C10.3977 22.3722 10.9091 22.2443 11.3267 21.9886C11.7443 21.7244 12.0597 21.3366 12.2727 20.8253C12.4943 20.3139 12.6094 19.679 12.6179 18.9205V0.818181ZM24.6292 27V0.818181H42.5013V5.95739H30.9573V11.3267H41.3636V16.4787H30.9573V27H24.6292Z" fill="black"/>
</svg>
