<svg width="46" height="42" viewBox="0 0 46 42" fill="none" xmlns="http://www.w3.org/2000/svg">
<path d="M32.1725 0.824968C31.424 0.7998 30.6405 0.930297 29.855 1.18497C28.2839 1.69431 26.6376 2.6869 24.9481 4.06122C24.286 4.59981 23.6179 5.21548 22.9475 5.86872C22.2919 5.23207 21.6375 4.63105 20.99 4.10434C19.3018 2.73113 17.66 1.74003 16.0925 1.23184C14.525 0.723653 12.9653 0.707906 11.6844 1.44747C10.4034 2.18703 9.63738 3.54463 9.29374 5.15622C8.95009 6.76781 8.98607 8.687 9.33124 10.8356C9.45113 11.5819 9.62399 12.3648 9.81874 13.1625C9.0868 13.3843 8.376 13.6175 7.71686 13.875C5.72765 14.6519 4.0817 15.5814 2.88311 16.6875C1.68453 17.7935 0.910614 19.1359 0.910614 20.61C0.910614 22.084 1.68453 23.4245 2.88311 24.5306C4.0817 25.6367 5.72765 26.568 7.71686 27.345C8.42167 27.6202 9.18474 27.8681 9.97249 28.1025C9.68914 29.1612 9.45957 30.1886 9.30311 31.1625C8.95767 33.3128 8.92119 35.2322 9.26561 36.8475C9.61004 38.4627 10.3764 39.828 11.6637 40.5712C12.951 41.3144 14.5177 41.2962 16.0887 40.7868C17.6598 40.2775 19.3042 39.2868 20.9937 37.9125C21.6498 37.3788 22.3134 36.7701 22.9775 36.1237C23.6448 36.7736 24.3117 37.3858 24.9706 37.9218C26.6588 39.2951 28.3025 40.2862 29.87 40.7943C31.4375 41.3025 32.9953 41.3183 34.2762 40.5787C35.5572 39.8392 36.3232 38.4816 36.6669 36.87C37.0105 35.2584 36.9727 33.3392 36.6275 31.1906C36.4706 30.2141 36.2409 29.1851 35.9562 28.1231C36.77 27.883 37.5572 27.6285 38.2831 27.345C40.2723 26.568 41.9183 25.6367 43.1169 24.5306C44.3154 23.4245 45.0894 22.084 45.0894 20.61C45.0894 19.1359 44.3154 17.7935 43.1169 16.6875C41.9183 15.5814 40.2723 14.6519 38.2831 13.875C37.6145 13.6138 36.8928 13.3776 36.1494 13.1531C36.3457 12.3506 36.52 11.562 36.6406 10.8112C36.9861 8.6609 37.0225 6.73959 36.6781 5.12434C36.3337 3.5091 35.5654 2.14569 34.2781 1.40247C33.6345 1.03086 32.921 0.850136 32.1725 0.824968ZM32.0844 2.77872C32.5541 2.79156 32.9547 2.90333 33.2975 3.10122C33.983 3.49699 34.4897 4.26726 34.76 5.53497C35.0303 6.80268 35.021 8.51548 34.7019 10.5018C34.5926 11.1819 34.434 11.9027 34.2537 12.6412C32.2906 12.1688 30.1395 11.818 27.8469 11.6118C26.6951 10.0161 25.5113 8.56449 24.3181 7.27497C24.949 6.65916 25.5757 6.08322 26.1875 5.58559C27.7482 4.31606 29.2257 3.45222 30.4587 3.05247C31.0753 2.85259 31.6147 2.76587 32.0844 2.77872ZM13.8669 2.78434C14.3393 2.77116 14.8798 2.85764 15.4981 3.05809C16.7347 3.459 18.2148 4.32246 19.7769 5.59309C20.3762 6.08062 20.9892 6.64401 21.6069 7.24497C20.4051 8.54472 19.213 10.0115 18.0537 11.6212C15.7693 11.8312 13.6258 12.1853 11.6712 12.66C11.4922 11.925 11.3356 11.2071 11.2269 10.53C10.9075 8.54188 10.8995 6.82696 11.1706 5.55559C11.4417 4.28423 11.9525 3.51002 12.6444 3.11059C12.9903 2.91088 13.3945 2.79753 13.8669 2.78434ZM22.9775 8.65684C23.7594 9.50778 24.5418 10.4393 25.3175 11.4412C24.5552 11.4094 23.7836 11.3906 23 11.3906C22.2007 11.3906 21.4145 11.41 20.6375 11.4431C21.4134 10.4403 22.1953 9.50852 22.9775 8.65684ZM23 13.3293C24.3055 13.3293 25.5779 13.383 26.8156 13.4737C27.6672 14.6969 28.4995 15.9946 29.2925 17.3681C29.9893 18.575 30.6198 19.78 31.1937 20.97C30.6138 22.1758 29.9726 23.3971 29.2662 24.6206C28.6444 25.6976 27.9951 26.7206 27.335 27.7068C25.9369 27.8237 24.4883 27.8887 23 27.8887C21.4759 27.8887 19.9947 27.8198 18.5656 27.6975C17.9165 26.7254 17.2781 25.7161 16.6662 24.6562C15.9614 23.4355 15.3234 22.2183 14.7444 21.015C15.3259 19.8049 15.9667 18.579 16.6756 17.3512C17.4645 15.9849 18.2943 14.6947 19.1412 13.4775C20.3923 13.3847 21.6795 13.3293 23 13.3293ZM29.2887 13.7137C30.8706 13.9112 32.3558 14.1854 33.7381 14.5143C33.3278 15.8594 32.8224 17.2644 32.21 18.7143C31.8124 17.9479 31.4006 17.1788 30.9556 16.4081C30.4167 15.4746 29.8563 14.5833 29.2887 13.7137ZM16.61 13.7287C16.0541 14.5825 15.507 15.4556 14.9787 16.3706C14.5281 17.1512 14.1077 17.9306 13.7056 18.7068C13.0985 17.2656 12.5961 15.8686 12.1887 14.5312C13.5613 14.2016 15.0385 13.9284 16.61 13.7287ZM35.6375 15.0243C36.318 15.2302 36.9753 15.4451 37.5781 15.6806C39.4119 16.3968 40.8624 17.2449 41.8025 18.1125C42.7426 18.98 43.1506 19.8074 43.1506 20.61C43.1506 21.4126 42.7426 22.2399 41.8025 23.1075C40.8624 23.975 39.4119 24.8231 37.5781 25.5393C36.9082 25.801 36.1721 26.0383 35.4069 26.2631C34.861 24.5747 34.1642 22.8132 33.335 21.015C34.2884 18.9504 35.0586 16.9375 35.6375 15.0243ZM10.3306 15.0337C10.9028 16.9277 11.6632 18.9208 12.6031 20.9643C11.7684 22.773 11.0682 24.5445 10.52 26.2425C9.78171 26.0236 9.07059 25.7927 8.42186 25.5393C6.58812 24.8231 5.1376 23.975 4.19749 23.1075C3.25737 22.2399 2.84936 21.4126 2.84936 20.61C2.84936 19.8074 3.25737 18.98 4.19749 18.1125C5.1376 17.2449 6.58812 16.3968 8.42186 15.6806C9.01545 15.4488 9.66167 15.2369 10.3306 15.0337ZM23 16.2C20.3604 16.2 18.2 18.3604 18.2 21C18.2 23.6396 20.3604 25.8 23 25.8C25.6396 25.8 27.8 23.6396 27.8 21C27.8 18.3604 25.6396 16.2 23 16.2ZM23 18.12C24.6019 18.12 25.88 19.398 25.88 21C25.88 22.6019 24.6019 23.88 23 23.88C21.398 23.88 20.12 22.6019 20.12 21C20.12 19.398 21.398 18.12 23 18.12ZM32.2344 23.2687C32.7378 24.4603 33.1755 25.6263 33.5431 26.7506C32.3886 27.0183 31.1593 27.2439 29.8662 27.4218C30.2385 26.8279 30.6061 26.2229 30.965 25.6012C31.4149 24.8219 31.8328 24.0436 32.2344 23.2687ZM13.7281 23.2706C14.1318 24.0503 14.5522 24.8321 15.005 25.6162C15.3594 26.2301 15.7213 26.8294 16.0887 27.4162C14.7995 27.2374 13.574 27.0111 12.4231 26.7431C12.7891 25.6222 13.2269 24.4587 13.7281 23.2706ZM11.87 28.6068C13.6074 29.0184 15.4906 29.3346 17.4875 29.5406C18.8208 31.469 20.209 33.2009 21.6069 34.7156C20.9819 35.325 20.3625 35.8968 19.7562 36.39C18.1956 37.6595 16.7161 38.5215 15.4831 38.9212C14.2501 39.321 13.3299 39.2682 12.6444 38.8725C11.9589 38.4767 11.4541 37.7064 11.1837 36.4387C10.9134 35.171 10.9209 33.4601 11.24 31.4737C11.3848 30.5726 11.6011 29.6077 11.87 28.6068ZM34.0981 28.6143C34.3691 29.6208 34.5863 30.5902 34.7319 31.4962C35.0512 33.4843 35.0592 35.1973 34.7881 36.4687C34.517 37.7401 34.0081 38.5162 33.3162 38.9156C32.6244 39.315 31.6972 39.369 30.4606 38.9681C29.224 38.5672 27.7439 37.7019 26.1819 36.4312C25.5713 35.9346 24.9476 35.3599 24.3181 34.7456C25.7251 33.2252 27.1236 31.4839 28.4656 29.5443C30.4675 29.3397 32.3559 29.0254 34.0981 28.6143ZM19.9925 29.7375C20.9782 29.7912 21.9769 29.8275 23 29.8275C23.9893 29.8275 24.9556 29.7934 25.91 29.7431C24.9344 31.0594 23.9399 32.2561 22.9494 33.3337C21.9595 32.2538 20.9668 31.055 19.9925 29.7375Z" fill="#404040"/>
</svg>
