<svg width="36" height="40" viewBox="0 0 36 40" fill="none" xmlns="http://www.w3.org/2000/svg">
<path d="M17.9999 39.97C17.4499 39.97 16.9359 39.822 16.4559 39.566L11.5779 36.67C10.8479 36.264 11.2139 36.116 11.4339 36.042C12.4259 35.712 12.6099 35.64 13.6359 35.056C13.7479 34.982 13.8939 35.016 14.0059 35.09L17.7459 37.33C17.8939 37.402 18.0779 37.402 18.1879 37.33L32.8259 28.856C32.9739 28.784 33.0459 28.636 33.0459 28.452V11.536C33.0459 11.354 32.9739 11.206 32.8259 11.134L18.1879 2.69602C18.0419 2.62202 17.8579 2.62202 17.7459 2.69602L3.10394 11.132C2.95794 11.204 2.88394 11.39 2.88394 11.534V28.448C2.88394 28.594 2.95794 28.78 3.10394 28.852L7.10394 31.166C9.26794 32.262 10.6279 30.976 10.6279 29.696V13.004C10.6279 12.784 10.8099 12.562 11.0679 12.562H12.9399C13.1559 12.562 13.3799 12.746 13.3799 13.004V29.698C13.3799 32.596 11.8039 34.286 9.05194 34.286C8.20794 34.286 7.54794 34.286 5.67594 33.366L1.82594 31.168C1.35685 30.8953 0.967556 30.5043 0.696959 30.034C0.426363 29.5637 0.283943 29.0306 0.283936 28.488V11.572C0.283936 10.472 0.869936 9.44402 1.82594 8.89402L16.4579 0.420017C16.9329 0.165987 17.4633 0.0330811 18.0019 0.0330811C18.5406 0.0330811 19.0709 0.165987 19.5459 0.420017L34.1799 8.89402C35.1379 9.44202 35.7219 10.472 35.7219 11.572V28.488C35.7219 29.586 35.1359 30.614 34.1799 31.168L19.5459 39.64C19.0639 39.86 18.5139 39.97 17.9999 39.97ZM22.5119 28.338C16.0919 28.338 14.7719 25.402 14.7719 22.91C14.7719 22.69 14.9559 22.468 15.2119 22.468H17.1199C17.3399 22.468 17.5219 22.614 17.5219 22.836C17.8159 24.778 18.6579 25.734 22.5499 25.734C25.6299 25.734 26.9539 25.034 26.9539 23.384C26.9539 22.43 26.5839 21.734 21.7799 21.258C17.7819 20.858 15.2879 19.972 15.2879 16.782C15.2879 13.812 17.7819 12.05 21.9659 12.05C26.6599 12.05 28.9719 13.668 29.2639 17.186C29.2604 17.3047 29.2214 17.4197 29.1519 17.516C29.0779 17.588 28.9699 17.662 28.8599 17.662H26.9539C26.8597 17.66 26.7689 17.6267 26.6957 17.5673C26.6225 17.5079 26.5712 17.4258 26.5499 17.334C26.1079 15.31 24.9719 14.654 21.9659 14.654C18.5879 14.654 18.1839 15.828 18.1839 16.708C18.1839 17.77 18.6579 18.1 23.2119 18.688C27.7239 19.274 29.8519 20.118 29.8519 23.276C29.8119 26.506 27.1739 28.338 22.5119 28.338Z" fill="#2E2E2E"/>
</svg>
